<svg width="85" height="36" viewBox="0 0 85 36" fill="none" xmlns="http://www.w3.org/2000/svg">
<path d="M55.5297 15.2774C14.8381 17.2503 3.74038 36.8563 4.1103 32.0473C4.72124 24.1051 12.6972 19.2118 20.5544 17.9019C40.3448 14.6027 51.8773 14.6916 55.5297 15.2774Z" fill="#878787"/>
<path d="M15.3312 7.38577C7.93273 13.2059 2.54829 28.5536 0.780871 35.5C0.657553 20.7031 19.647 -14.8097 19.2771 7.87894C18.9811 26.0299 28.3608 27.4438 33.0876 25.8819C65.9368 16.0173 81.3832 22.0183 85.0002 26.2518C79.4514 20.5797 57.2559 21.0729 35.4304 30.5676C17.97 38.1634 14.7558 18.278 15.3312 7.38577Z" fill="#878787"/>
<path d="M48.8194 34.2139V31.3182H49.3655V34.2139H48.8194Z" fill="#878787"/>
<path d="M51.9784 34.2139V31.3182H53.0167L53.5917 33.8416H53.6662V31.3182H54.2039V34.2139H53.1656L52.5907 31.6905H52.5162V34.2139H51.9784Z" fill="#878787"/>
<path d="M56.7352 34.2139V33.734H57.1158V31.7981H56.7352V31.3182H57.9265C58.3154 31.3182 58.6104 31.4175 58.8118 31.6161C59.0158 31.8119 59.1179 32.1042 59.1179 32.493V33.0391C59.1179 33.4279 59.0158 33.7216 58.8118 33.9202C58.6104 34.116 58.3154 34.2139 57.9265 34.2139H56.7352ZM57.6618 33.7175H57.9348C58.1554 33.7175 58.3167 33.6596 58.4188 33.5437C58.5208 33.4279 58.5718 33.2652 58.5718 33.0556V32.4765C58.5718 32.2641 58.5208 32.1014 58.4188 31.9884C58.3167 31.8725 58.1554 31.8146 57.9348 31.8146H57.6618V33.7175Z" fill="#878787"/>
<path d="M62.7581 34.2718C62.521 34.2718 62.3169 34.229 62.1459 34.1435C61.9777 34.0553 61.8481 33.9312 61.7571 33.7712C61.6688 33.6085 61.6247 33.4169 61.6247 33.1963V31.3182H62.1707V33.2128C62.1707 33.3893 62.2204 33.5286 62.3196 33.6306C62.4217 33.7326 62.5678 33.7837 62.7581 33.7837C62.9484 33.7837 63.0932 33.7326 63.1925 33.6306C63.2945 33.5286 63.3455 33.3893 63.3455 33.2128V31.3182H63.8916V33.1963C63.8916 33.4169 63.8461 33.6085 63.755 33.7712C63.6668 33.9312 63.5372 34.0553 63.3662 34.1435C63.198 34.229 62.9953 34.2718 62.7581 34.2718Z" fill="#878787"/>
<path d="M67.494 34.2718C67.2706 34.2718 67.0734 34.2318 66.9025 34.1518C66.7315 34.0718 66.5977 33.9574 66.5012 33.8085C66.4047 33.6596 66.3564 33.4803 66.3564 33.2707V33.1549H66.8942V33.2707C66.8942 33.4445 66.948 33.5754 67.0555 33.6637C67.1631 33.7492 67.3092 33.7919 67.494 33.7919C67.6815 33.7919 67.8208 33.7547 67.9118 33.6802C68.0056 33.6058 68.0524 33.5106 68.0524 33.3948C68.0524 33.3148 68.029 33.25 67.9821 33.2004C67.938 33.1508 67.8718 33.1108 67.7836 33.0804C67.6981 33.0473 67.5933 33.017 67.4692 32.9894L67.374 32.9687C67.1755 32.9246 67.0045 32.8695 66.8611 32.8033C66.7205 32.7343 66.6115 32.6447 66.5343 32.5344C66.4599 32.4241 66.4226 32.2807 66.4226 32.1042C66.4226 31.9277 66.464 31.7774 66.5467 31.6533C66.6322 31.5265 66.7508 31.4299 66.9025 31.3637C67.0569 31.2948 67.2375 31.2603 67.4444 31.2603C67.6512 31.2603 67.8346 31.2962 67.9945 31.3679C68.1572 31.4368 68.2841 31.5416 68.3751 31.6823C68.4689 31.8202 68.5157 31.9939 68.5157 32.2035V32.3276H67.978V32.2035C67.978 32.0932 67.9559 32.0049 67.9118 31.9387C67.8704 31.8698 67.8098 31.8202 67.7298 31.7898C67.6498 31.7567 67.5547 31.7402 67.4444 31.7402C67.2789 31.7402 67.1562 31.7719 67.0762 31.8353C66.999 31.896 66.9604 31.9801 66.9604 32.0877C66.9604 32.1594 66.9783 32.22 67.0142 32.2697C67.0528 32.3193 67.1093 32.3607 67.1838 32.3938C67.2582 32.4269 67.3534 32.4558 67.4692 32.4806L67.5643 32.5013C67.7712 32.5454 67.9504 32.602 68.1021 32.6709C68.2565 32.7399 68.3765 32.8309 68.462 32.9439C68.5475 33.057 68.5902 33.2018 68.5902 33.3783C68.5902 33.5548 68.5447 33.7106 68.4537 33.8457C68.3654 33.9781 68.2386 34.0829 68.0731 34.1601C67.9104 34.2345 67.7174 34.2718 67.494 34.2718Z" fill="#878787"/>
<path d="M71.6429 34.2139V31.8146H70.7991V31.3182H73.0328V31.8146H72.189V34.2139H71.6429Z" fill="#878787"/>
<path d="M75.473 34.2139V31.3182H76.7305C76.9125 31.3182 77.0711 31.35 77.2062 31.4134C77.3413 31.4768 77.4461 31.5664 77.5206 31.6823C77.595 31.7981 77.6323 31.9346 77.6323 32.0918V32.1414C77.6323 32.3152 77.5909 32.4558 77.5082 32.5634C77.4254 32.6709 77.3234 32.7495 77.2021 32.7991V32.8736C77.3124 32.8791 77.3979 32.9177 77.4585 32.9894C77.5192 33.0584 77.5495 33.1508 77.5495 33.2666V34.2139H77.0035V33.3452C77.0035 33.279 76.9856 33.2252 76.9497 33.1838C76.9166 33.1425 76.8601 33.1218 76.7801 33.1218H76.019V34.2139H75.473ZM76.019 32.6254H76.6726C76.8022 32.6254 76.9028 32.5909 76.9745 32.522C77.049 32.4503 77.0862 32.3565 77.0862 32.2407V32.1993C77.0862 32.0835 77.0504 31.9911 76.9787 31.9222C76.907 31.8505 76.8049 31.8146 76.6726 31.8146H76.019V32.6254Z" fill="#878787"/>
<path d="M80.8268 34.2139V33.2169L79.8423 31.3182H80.4503L81.0626 32.5592H81.137L81.7492 31.3182H82.3573L81.3728 33.2169V34.2139H80.8268Z" fill="#878787"/>
</svg>
