<svg width="32" height="32" viewBox="0 0 32 32" fill="none" xmlns="http://www.w3.org/2000/svg">
<path d="M15.9654 16.0096L30.975 1M26.5784 5.39655C23.9199 2.74427 20.3627 1.18641 16.6106 1.03116C12.8584 0.87592 9.1847 2.1346 6.31613 4.55821C3.44757 6.98181 1.59312 10.3938 1.11966 14.1192C0.646202 17.8445 1.58822 21.6119 3.75935 24.676C5.93047 27.7401 9.17257 29.8777 12.8442 30.666C16.5159 31.4543 20.3497 30.8357 23.5872 28.9328C26.8247 27.0298 29.23 23.981 30.3274 20.3896C31.4247 16.7982 31.1341 12.9257 29.5131 9.53825M21.2719 10.7031C20.0305 9.46311 18.3938 8.69734 16.6463 8.53886C14.8989 8.38038 13.1511 8.83919 11.7068 9.83556C10.2626 10.8319 9.21305 12.3029 8.74072 13.9927C8.26838 15.6826 8.40309 17.4845 9.12141 19.0854C9.83974 20.6862 11.0963 21.9848 12.6727 22.7553C14.249 23.5259 16.0456 23.7198 17.75 23.3032C19.4545 22.8867 20.9591 21.8861 22.0024 20.4754C23.0458 19.0646 23.5618 17.3329 23.4608 15.5812" stroke="#FC5A11" stroke-width="2" stroke-linecap="round" stroke-linejoin="round"/>
</svg>
