<svg width="26" height="32" viewBox="0 0 26 32" fill="none" xmlns="http://www.w3.org/2000/svg">
<path d="M6.76876 31H18.3059M12.5373 26.3851V18.3091M12.5373 18.3091L7.92247 13.6943M12.5373 18.3091L17.1522 13.6943M5.42756 21.6261C4.05604 20.5546 2.94515 19.1864 2.17833 17.624C1.41151 16.0616 1.00871 14.3458 1.00018 12.6054C0.965566 6.3523 6.0073 1.1476 12.259 1.00338C14.6818 0.944699 17.0616 1.65047 19.0607 3.02057C21.0598 4.39066 22.5766 6.3555 23.3961 8.6363C24.2155 10.9171 24.2959 13.398 23.6258 15.7271C22.9557 18.0561 21.5692 20.115 19.663 21.6116C19.2425 21.9376 18.9018 22.3551 18.6667 22.8323C18.4316 23.3096 18.3082 23.8341 18.3059 24.3661V25.2314C18.3059 25.5374 18.1844 25.8309 17.968 26.0472C17.7516 26.2636 17.4582 26.3851 17.1522 26.3851H7.92247C7.61649 26.3851 7.32304 26.2636 7.10667 26.0472C6.89031 25.8309 6.76876 25.5374 6.76876 25.2314V24.3661C6.76821 23.8375 6.64712 23.316 6.41472 22.8411C6.18231 22.3663 5.8447 21.9508 5.42756 21.6261Z" stroke="#FC5A11" stroke-width="2" stroke-linecap="round" stroke-linejoin="round"/>
</svg>
